<svg width="40" height="40" viewBox="0 0 40 40" fill="none" xmlns="http://www.w3.org/2000/svg">
  <circle cx="20.2881" cy="20" r="20" fill="#46448D"/>
  <g fill="white">
    <path d="M17.8912 2.19296L18.4004 6.061C18.5974 6.03104 18.7958 6.00515 18.9954 5.98343L18.4862 2.11567L18.486 2.11464L17.8912 2.19296Z" />
    <path d="M22.0808 5.98343C22.2804 6.00515 22.4788 6.03104 22.6758 6.061L23.185 2.19294L22.6547 2.12312C22.6332 2.12061 22.6116 2.11812 22.59 2.11567L22.0808 5.98343Z" />
    <path d="M25.4866 2.69097L24.9071 2.53567L23.8977 6.30272C24.0925 6.35034 24.2858 6.40202 24.4774 6.45765L25.4866 2.69097Z" />
    <path d="M27.7035 3.48477L27.1492 3.25517L25.0826 8.24445C25.2695 8.31677 25.4543 8.39342 25.6368 8.47428L27.7035 3.48477Z" />
    <path d="M29.7979 4.56154L29.2783 4.26154L27.328 7.63953C27.5034 7.7361 27.6766 7.8363 27.8473 7.94002L29.7979 4.56154Z" />
    <path d="M28.8822 8.63282C29.0434 8.75137 29.202 8.87327 29.3579 8.99842L31.7326 5.90362C31.5761 5.77918 31.4175 5.65729 31.2569 5.53802L28.8822 8.63282Z" />
    <path d="M29.233 10.8808C29.3777 11.0189 29.5192 11.1604 29.6573 11.3051L33.4764 7.48598C33.3373 7.34222 33.1959 7.20078 33.0521 7.06171L29.233 10.8808Z" />
    <path d="M31.5397 11.1802C31.6648 11.3361 31.7867 11.4947 31.9053 11.6559L35 9.28116C34.8807 9.1205 34.7589 8.9619 34.6344 8.80541L31.5397 11.1802Z" />
    <path d="M36.2765 11.2601L35.9765 10.7404L32.5982 12.6909C32.7019 12.8617 32.8021 13.0348 32.8987 13.2103L36.2765 11.2601Z" />
    <path d="M16.169 2.53564L15.5895 2.69094L16.5988 6.45766C16.7903 6.40203 16.9836 6.35035 17.1784 6.30273L16.169 2.53564Z" />
    <path d="M13.9268 3.25514L13.3725 3.48475L15.4392 8.47432C15.6218 8.39346 15.8065 8.31681 15.9935 8.24449L13.9268 3.25514Z" />
    <path d="M11.7977 4.26155L11.2781 4.56155L13.2288 7.94007C13.3995 7.83635 13.5727 7.73615 13.7481 7.63958L11.7977 4.26155Z" />
    <path d="M11.7182 8.99849C11.8741 8.87335 12.0327 8.75145 12.1939 8.63289L9.81919 5.53812C9.7842 5.56409 9.74931 5.59019 9.71451 5.61642L9.46663 5.80663C9.42542 5.83882 9.38436 5.87118 9.34344 5.90372L11.7182 8.99849Z" />
    <path d="M11.4189 11.3051C11.557 11.1603 11.6985 11.0189 11.8432 10.8808L8.02407 7.06169C7.88032 7.20075 7.73887 7.3422 7.59981 7.48595L11.4189 11.3051Z" />
    <path d="M9.17103 11.6557C9.28959 11.4945 9.41149 11.3359 9.53664 11.18L6.44188 8.80526C6.31744 8.96174 6.19555 9.12035 6.07628 9.281L9.17103 11.6557Z" />
    <path d="M5.0996 10.7402L4.7996 11.2598L8.17761 13.2101C8.27418 13.0347 8.37438 12.8615 8.4781 12.6908L5.0996 10.7402Z" />
    <path d="M4.023 12.8343L3.79339 13.3887L8.78566 15.4474C8.85709 15.2632 8.93272 15.081 9.01244 14.9011L4.023 12.8343Z" />
    <path d="M3.22911 15.0515L3.07382 15.631L6.8408 16.6404C6.88843 16.4455 6.9401 16.2523 6.99573 16.0607L3.22911 15.0515Z" />
    <path d="M6.52153 18.4571C6.54326 18.2575 6.56915 18.0592 6.59911 17.8621L2.7303 17.3601L2.65293 17.9478L6.52153 18.4571Z" />
    <path d="M6.59906 22.1375C6.5691 21.9405 6.54322 21.7422 6.5215 21.5426L2.65289 22.0518L2.7312 22.6467L6.59906 22.1375Z" />
    <path d="M3.07372 24.3692L3.22901 24.9487L6.99579 23.9395C6.94015 23.7479 6.88848 23.5546 6.84085 23.3598L3.07372 24.3692Z" />
    <path d="M3.7934 26.6112L4.023 27.1655L9.01243 25.0989C8.93157 24.9164 8.85492 24.7316 8.7826 24.5447L3.7934 26.6112Z" />
    <path d="M4.7996 28.7404L5.0996 29.2601L8.47821 27.3094C8.37448 27.1387 8.27429 26.9655 8.17772 26.7901L4.7996 28.7404Z" />
    <path d="M9.5366 28.82C9.41145 28.6641 9.28955 28.5054 9.171 28.3442L6.07621 30.7189C6.09834 30.7487 6.12057 30.7785 6.14289 30.8081L6.35648 31.0865C6.38479 31.1227 6.41323 31.1587 6.44181 31.1946L9.5366 28.82Z" />
    <path d="M11.8432 29.1192C11.6985 28.9811 11.557 28.8397 11.4189 28.6949L7.5998 32.514L8.02406 32.9383L11.8432 29.1192Z" />
    <path d="M20.2381 7.4035C20.4375 7.39884 20.6387 7.39884 20.8381 7.4035V2.00245C20.7381 2.00082 20.6381 2.0002 20.5381 2C20.4381 2.0002 20.3381 2.00082 20.2381 2.00245V7.4035Z" />
    <path d="M12.1939 31.3671C12.0326 31.2485 11.874 31.1266 11.7181 31.0015L9.34337 34.0962C9.37325 34.12 9.4032 34.1436 9.43323 34.1672L9.74809 34.4088C9.77172 34.4266 9.7954 34.4442 9.81912 34.4618L12.1939 31.3671Z" />
    <path d="M11.2783 35.4385L11.7979 35.7385L13.7482 32.3605C13.5728 32.2639 13.3996 32.1637 13.2288 32.06L11.2783 35.4385Z" />
    <path d="M13.3726 36.5148L13.9269 36.7444L15.9934 31.7555C15.8065 31.6832 15.6217 31.6065 15.4392 31.5257L13.3726 36.5148Z" />
    <path d="M15.5896 37.309L16.1692 37.4643L17.1785 33.6973C16.9837 33.6497 16.7904 33.598 16.5988 33.5424L15.5896 37.309Z" />
    <path d="M18.9953 34.0166C18.7957 33.9948 18.5974 33.969 18.4003 33.939L17.8912 37.8066L18.4861 37.885L18.9953 34.0166Z" />
    <path d="M22.6758 33.939C22.4788 33.969 22.2804 33.9949 22.0808 34.0166L22.5901 37.885L23.185 37.8067L22.6758 33.939Z" />
    <path d="M24.907 37.4643L25.4865 37.309L24.4772 33.5424C24.2856 33.598 24.0924 33.6497 23.8976 33.6973L24.907 37.4643Z" />
    <path d="M27.1491 36.7444L27.7034 36.5148L25.6368 31.5257C25.4543 31.6066 25.2695 31.6833 25.0825 31.7556L27.1491 36.7444Z" />
    <path d="M29.2781 35.7385L29.7977 35.4385L27.8472 32.06C27.6765 32.1638 27.5033 32.2639 27.3279 32.3605L29.2781 35.7385Z" />
    <path d="M29.358 31.0015C29.2021 31.1267 29.0435 31.2486 28.8822 31.3671L31.2569 34.4619C31.4176 34.3426 31.5762 34.2208 31.7327 34.0963L29.358 31.0015Z" />
    <path d="M29.6573 28.6948C29.5193 28.8396 29.3778 28.981 29.2331 29.1191L33.0521 32.9383C33.1959 32.7992 33.3373 32.6578 33.4764 32.514L29.6573 28.6948Z" />
    <path d="M31.9053 28.344C31.7868 28.5052 31.6649 28.6639 31.5397 28.8198L34.6345 31.1945C34.7589 31.038 34.8808 30.8794 35.0001 30.7187L31.9053 28.344Z" />
    <path d="M35.9765 29.2598L36.2765 28.7402L32.8986 26.7899C32.802 26.9653 32.7018 27.1384 32.5981 27.3092L35.9765 29.2598Z" />
    <path d="M37.0531 27.1653L37.2827 26.611L32.2937 24.5444C32.2213 24.7314 32.1447 24.9162 32.0638 25.0987L37.0531 27.1653Z" />
    <path d="M37.8471 24.9485L38.0024 24.3689L34.2354 23.3596C34.1878 23.5544 34.1361 23.7476 34.0805 23.9392L37.8471 24.9485Z" />
    <path d="M34.5547 21.5425C34.533 21.7422 34.5071 21.9405 34.4771 22.1375L38.345 22.6467L38.3456 22.6416L38.4233 22.0518L34.5547 21.5425Z" />
    <path d="M38.5356 19.7H33.1346C33.1392 19.8994 33.1392 20.1006 33.1346 20.3H38.5356C38.5373 20.2 38.5379 20.1 38.5381 20C38.5379 19.9 38.5373 19.8 38.5356 19.7Z" />
    <path d="M34.4771 17.8622C34.507 18.0592 34.5329 18.2575 34.5546 18.4571L38.4232 17.9478L38.3457 17.3587L34.4771 17.8622Z" />
    <path d="M38.0023 15.6313L37.8471 15.0517L34.0805 16.0609C34.1361 16.2525 34.1878 16.4457 34.2354 16.6406L38.0023 15.6313Z" />
    <path d="M37.2827 13.3889L37.0531 12.8346L32.0638 14.9012C32.1447 15.0837 32.2213 15.2685 32.2936 15.4555L37.2827 13.3889Z" />
    <path d="M7.94159 20.3C7.93693 20.1006 7.93693 19.8994 7.94159 19.7L2.54054 19.7C2.5389 19.8 2.53829 19.9 2.53809 20C2.53829 20.1 2.5389 20.2 2.54054 20.3L7.94159 20.3Z" />
    <path d="M20.2381 37.9976V38H20.8381V37.9976V32.5965C20.6387 32.6012 20.4375 32.6012 20.2381 32.5965V37.9976Z" />
  </g>
</svg>
