<svg width="41" height="42" viewBox="0 0 41 42" fill="none" xmlns="http://www.w3.org/2000/svg">
<g filter="url(#filter0_d_3200_15337)">
<path d="M27.0616 9.08876C26.9715 9.12964 26.886 9.17342 26.8048 9.21941C26.3108 8.39371 25.7303 7.52042 25.0531 6.63753C23.85 5.06898 22.1983 3.65241 20.7397 2.59478C19.3293 1.57204 17.7742 0.650241 16.6566 0.269317C16.0699 0.0694018 15.1756 -0.13716 14.1974 0.120084C13.0189 0.429995 12.2356 1.2691 11.875 2.18597C11.5743 2.95053 11.5989 3.66299 11.6393 4.06133C11.6844 4.50438 11.7868 4.89828 11.883 5.1927C11.994 5.53201 12.1857 6.01896 12.3319 6.39007C12.3963 6.55365 12.4518 6.69479 12.4878 6.79101C12.6615 7.25595 12.7909 7.67437 12.8625 8.10623C12.9908 8.88035 12.9798 9.95208 12.1949 11.5265C12.1016 11.7137 12.0043 11.8938 11.9044 12.0666C11.8307 12.0076 11.7542 11.9505 11.6749 11.8959C10.8802 11.3493 9.58025 10.9544 8.25165 11.6364C8.04213 11.7439 7.85723 11.867 7.69457 11.9971C7.08987 12.4806 6.79248 13.0599 6.68031 13.2899C6.49378 13.6723 6.38283 14.0438 6.33455 14.2065C6.09683 15.0075 5.65661 15.9439 4.71169 17.9067C2.95034 21.5652 2.92871 23.8977 2.92871 25.1073C2.92871 33.8765 10.7174 40.9996 19.8924 40.9996C28.7772 40.9996 36.3912 34.4985 36.8336 25.8833C36.8377 25.8418 36.8424 25.7915 36.8474 25.7326C36.8599 25.5833 36.8741 25.3789 36.8846 25.1268C36.9056 24.6237 36.9122 23.924 36.8598 23.0885C36.7561 21.4321 36.4159 19.1608 35.4365 16.8097C34.3835 14.282 32.5825 11.7331 31.3367 10.334C31.0314 9.99112 30.3475 9.24868 29.3282 8.94312C28.6827 8.74964 27.8697 8.72211 27.0616 9.08876Z" fill="#262B45"/>
<path fill-rule="evenodd" clip-rule="evenodd" d="M33.9122 25.6576C33.5992 32.5613 27.4433 38.0701 19.8921 38.0701C12.1407 38.0701 5.85694 32.0709 5.85694 25.1063C5.85694 24.1754 5.83888 22.315 7.35005 19.1761C8.25442 17.2976 8.82165 16.1175 9.14177 15.0387C9.31766 14.4458 9.65972 13.5039 10.6349 15.0387C11.2099 15.9437 11.2321 17.2453 11.2321 17.2453C11.2321 17.2453 13.3714 15.729 14.8156 12.8321C16.9326 8.58539 15.2435 6.04684 14.6662 4.28156C14.4665 3.67088 14.341 2.57338 15.7114 3.04035C17.1078 3.51628 20.7993 5.90313 22.729 8.41893C25.483 12.0095 26.4618 15.4525 26.4618 15.4525C26.4618 15.4525 27.3436 14.4416 27.6562 13.3838C28.0094 12.1893 28.0146 11.0063 29.1492 12.2806C30.2282 13.4925 31.8308 15.7698 32.7328 17.9349C34.3706 21.8666 33.9122 25.6576 33.9122 25.6576Z" fill="url(#paint0_linear_3200_15337)"/>
<path fill-rule="evenodd" clip-rule="evenodd" d="M19.8927 38.0717C14.5326 38.0717 10.1875 34.0583 10.1875 29.1074C10.1875 26.12 11.4908 24.3064 14.2033 21.8468C15.9401 20.272 17.5657 18.3378 18.2565 17.0207C18.3925 16.7614 18.7021 15.4103 19.8955 16.9923C20.5216 17.822 21.503 19.2975 22.1323 20.5568C23.2172 22.7279 23.4761 24.8321 23.4761 24.8321C23.4761 24.8321 24.5393 24.2534 25.2678 22.7634C25.5027 22.2832 25.9775 20.4652 27.3049 22.2829C28.2788 23.6168 29.6168 26.0151 29.5978 29.1074C29.5978 34.0583 25.2526 38.0717 19.8927 38.0717Z" fill="#FC9502"/>
<path fill-rule="evenodd" clip-rule="evenodd" d="M20.0417 28.2793C21.4229 28.2793 21.4229 30.6416 23.1772 33.7958C24.3455 35.8961 22.5981 38.0711 20.0417 38.0711C17.4854 38.0711 16.1597 36.157 16.1597 33.7958C16.1597 31.4347 18.6606 28.2793 20.0417 28.2793Z" fill="#FCE202"/>
</g>
<defs>
<filter id="filter0_d_3200_15337" x="0" y="0" width="41" height="42" filterUnits="userSpaceOnUse" color-interpolation-filters="sRGB">
<feFlood flood-opacity="0" result="BackgroundImageFix"/>
<feColorMatrix in="SourceAlpha" type="matrix" values="0 0 0 0 0 0 0 0 0 0 0 0 0 0 0 0 0 0 127 0" result="hardAlpha"/>
<feOffset dy="1"/>
<feComposite in2="hardAlpha" operator="out"/>
<feColorMatrix type="matrix" values="0 0 0 0 1 0 0 0 0 0.898039 0 0 0 0 0 0 0 0 1 0"/>
<feBlend mode="normal" in2="BackgroundImageFix" result="effect1_dropShadow_3200_15337"/>
<feBlend mode="normal" in="SourceGraphic" in2="effect1_dropShadow_3200_15337" result="shape"/>
</filter>
<linearGradient id="paint0_linear_3200_15337" x1="19.9132" y1="38.096" x2="19.9132" y2="2.95429" gradientUnits="userSpaceOnUse">
<stop stop-color="#FF4C0D"/>
<stop offset="1" stop-color="#FC9502"/>
</linearGradient>
</defs>
</svg>
