<?xml version="1.0" encoding="UTF-8"?>
<svg version="1.1" xmlns="http://www.w3.org/2000/svg" width="512" height="512">
<path d="M0 0 C1.35883529 0.97210902 2.7181594 1.94353539 4.078125 2.9140625 C5.52445312 3.94660156 5.52445312 3.94660156 7 5 C7.33620361 4.37246826 7.67240723 3.74493652 8.01879883 3.09838867 C13.94782335 -7.95147726 19.90134097 -18.9876006 26.125 -29.875 C26.57335205 -30.67010986 27.0217041 -31.46521973 27.48364258 -32.28442383 C28.11435669 -33.37726685 28.11435669 -33.37726685 28.7578125 -34.4921875 C29.1202002 -35.12495605 29.48258789 -35.75772461 29.85595703 -36.40966797 C31 -38 31 -38 34 -40 C40.06788368 -40.55162579 40.06788368 -40.55162579 43.12153625 -38.74447632 C45.25088874 -36.7670067 45.81430384 -35.54259913 46.61791992 -32.77587891 C47.00833969 -31.47120163 47.00833969 -31.47120163 47.40664673 -30.14016724 C47.81443863 -28.69793289 47.81443863 -28.69793289 48.23046875 -27.2265625 C48.68660049 -25.68051834 48.68660049 -25.68051834 49.15194702 -24.10324097 C50.17763367 -20.61438165 51.18265089 -17.11991321 52.1875 -13.625 C52.90947231 -11.1487227 53.63273402 -8.67282103 54.35717773 -6.19726562 C55.55008879 -2.11898413 56.74104837 1.95983846 57.92549133 6.04058838 C61.16762466 17.20360134 64.48095307 28.3445232 67.81245232 39.48115921 C69.5430158 45.27139389 71.26589208 51.06392018 72.98857212 56.85650444 C74.41518953 61.6522539 75.84550809 66.44683169 77.28427124 71.23895264 C78.65535628 75.80731804 80.01430304 80.37913206 81.3646431 84.9536705 C81.86798819 86.65126903 82.37558182 88.34761453 82.88773727 90.04257584 C83.59490831 92.38518245 84.28658263 94.73186029 84.97485352 97.08007812 C85.18195041 97.75310156 85.3890473 98.42612499 85.60241985 99.11954308 C87.02033579 104.04376445 87.57412425 108.88185671 87 114 C85.5 116.5625 85.5 116.5625 83 118 C76.03332015 118.57718276 70.24385197 116.90401303 63.6171875 114.87109375 C62.48527985 114.53377228 61.35337219 114.19645081 60.18716431 113.84890747 C57.06730534 112.91720543 53.95049713 111.97602208 50.83474731 111.03068924 C47.52557352 110.02904669 44.21292379 109.03904914 40.90039062 108.04858398 C39.51372428 107.63383319 38.12706669 107.2190531 36.74041748 106.804245 C36.03919518 106.59448217 35.33797287 106.38471935 34.6155014 106.16860008 C32.43124494 105.51454636 30.24746692 104.85891548 28.06378174 104.20295715 C17.2205219 100.94809544 6.36093552 97.75137252 -4.50664902 94.57874107 C-7.1983719 93.79273178 -9.88978484 93.00567064 -12.58108521 92.21821594 C-13.46420065 91.95983035 -14.34731609 91.70144476 -15.25719261 91.4352293 C-17.03248908 90.91577614 -18.80777927 90.39630156 -20.58306313 89.87680531 C-24.97558368 88.59184365 -29.36874007 87.3091366 -33.76324463 86.03097534 C-37.92964148 84.81890812 -42.09399899 83.60006401 -46.25697708 82.37630844 C-47.79836671 81.92453107 -49.34048707 81.47523842 -50.88337326 81.02859879 C-53.00429247 80.41431193 -55.12247831 79.79135011 -57.24023438 79.16625977 C-58.43080444 78.81862076 -59.62137451 78.47098175 -60.84802246 78.11280823 C-64.87966159 76.68943476 -67.97448489 75.02551511 -71 72 C-71.4375 68.6875 -71.4375 68.6875 -71 65 C-66.67817485 59.382573 -60.29331268 56.66268876 -54.125 53.4375 C-52.00227745 52.3118138 -49.87987342 51.18552672 -47.7578125 50.05859375 C-46.26749512 49.27137939 -46.26749512 49.27137939 -44.74707031 48.46826172 C-41.45764353 46.71011982 -38.22250019 44.87749655 -35 43 C-76.62096592 8.87597825 -135.93027186 -6.23529908 -189 -1 C-229.9243061 3.10743856 -270.69492198 17.10129499 -303 43 C-302.25951416 43.39268066 -301.51902832 43.78536133 -300.75610352 44.18994141 C-297.96404428 45.67348853 -295.17430627 47.16129382 -292.38598633 48.65185547 C-290.60343854 49.60315223 -288.8183484 50.54968026 -287.03320312 51.49609375 C-268.8991887 61.2016226 -268.8991887 61.2016226 -267 65 C-266.42376488 71.22333928 -266.42376488 71.22333928 -268.52807617 74.05957031 C-271.72040459 76.56550871 -275.02248349 77.57465252 -278.86328125 78.671875 C-279.66162384 78.91101624 -280.45996643 79.15015747 -281.28250122 79.39654541 C-283.95561947 80.19358499 -286.6338472 80.97178149 -289.3125 81.75 C-291.22368543 82.31540412 -293.13456721 82.8818355 -295.04516602 83.44921875 C-300.2573425 84.99247681 -305.47458941 86.51781613 -310.69372559 88.03735352 C-314.03235086 89.00941919 -317.37025519 89.98392687 -320.70800781 90.95898438 C-329.94369438 93.65569848 -339.18032774 96.34899375 -348.42333984 99.02050781 C-359.6323704 102.26169931 -370.82985409 105.53322061 -382 108.90625 C-384.03976679 109.5196248 -386.07956105 110.13290828 -388.11938477 110.74609375 C-391.89958804 111.88286749 -395.67527239 113.03326199 -399.44897461 114.19140625 C-401.14159888 114.70107062 -402.83437943 115.21021635 -404.52734375 115.71875 C-405.27375122 115.95227173 -406.02015869 116.18579346 -406.78918457 116.4263916 C-411.68613231 117.88000245 -415.88600829 118.32773612 -421 118 C-423.5 116.5625 -423.5 116.5625 -425 114 C-425.69416576 107.95308097 -424.64286665 102.50546665 -422.8671875 96.75708008 C-422.52489892 95.59627285 -422.52489892 95.59627285 -422.17569542 94.41201496 C-421.42032694 91.86092702 -420.64774197 89.31540509 -419.875 86.76953125 C-419.33416486 84.9549859 -418.79444511 83.14010777 -418.25576782 81.32492065 C-416.81532714 76.48203746 -415.36009257 71.6437243 -413.90143585 66.80630112 C-412.39853672 61.81495195 -410.90740821 56.82009076 -409.41552734 51.82543945 C-407.62844064 45.84454206 -405.84027467 39.86398115 -404.04598999 33.88523865 C-400.79005836 23.03125275 -397.57192966 12.16791699 -394.4308548 1.28012276 C-393.8633121 -0.68586153 -393.29384147 -2.65127549 -392.72357178 -4.61647034 C-390.67758599 -11.66330733 -390.67758599 -11.66330733 -388.65673828 -18.71737671 C-387.77596757 -21.8114982 -386.87836096 -24.90023569 -385.9765625 -27.98828125 C-385.60635483 -29.31776291 -385.60635483 -29.31776291 -385.22866821 -30.67410278 C-383.5102719 -36.47399145 -383.5102719 -36.47399145 -381.02880859 -39.03198242 C-377.80968493 -40.56794215 -375.50766512 -40.49230388 -372 -40 C-368.32043729 -36.82055817 -365.97303405 -33.60398681 -363.73046875 -29.31640625 C-363.15506348 -28.22956543 -362.5796582 -27.14272461 -361.98681641 -26.02294922 C-361.39304199 -24.88100098 -360.79926758 -23.73905273 -360.1875 -22.5625 C-358.95055927 -20.22194732 -357.7122869 -17.88209788 -356.47265625 -15.54296875 C-355.87855957 -14.41810059 -355.28446289 -13.29323242 -354.67236328 -12.13427734 C-351.58325236 -6.34478742 -348.31516008 -0.66254052 -345 5 C-344.55156738 4.65533691 -344.10313477 4.31067383 -343.64111328 3.95556641 C-256.52924352 -62.25819859 -140.42594249 -75.7884619 0 0 Z " fill="rgb(0,178,255)" transform="translate(425,225)"/>
</svg>
